<svg width="32" height="32" viewBox="0 0 32 32" fill="none" xmlns="http://www.w3.org/2000/svg">
  <!-- Background circle with Handoff brand colors -->
  <defs>
    <linearGradient id="bgGradient" x1="0%" y1="0%" x2="100%" y2="100%">
      <stop offset="0%" style="stop-color:#034078;stop-opacity:1" />
      <stop offset="100%" style="stop-color:#001F54;stop-opacity:1" />
    </linearGradient>
  </defs>
  
  <!-- Background -->
  <rect width="32" height="32" rx="6" fill="url(#bgGradient)"/>
  
  <!-- Hands protecting house icon - simplified version of Handoff logo -->
  <!-- Left hand -->
  <path d="M6 18C6 16 7 14 9 13C10 12.5 11 13 11 14V20C11 21 10 22 9 22C7 22 6 20 6 18Z" fill="white" opacity="0.9"/>
  
  <!-- Right hand -->
  <path d="M26 18C26 16 25 14 23 13C22 12.5 21 13 21 14V20C21 21 22 22 23 22C25 22 26 20 26 18Z" fill="white" opacity="0.9"/>
  
  <!-- House in the middle -->
  <path d="M16 8L22 13V23H18V18H14V23H10V13L16 8Z" fill="#1282A2"/>
  
  <!-- Door -->
  <rect x="15" y="20" width="2" height="3" fill="white" rx="0.3"/>
  
  <!-- Window -->
  <rect x="15" y="15" width="2" height="2" fill="white" rx="0.3"/>
  
  <!-- Small "H" for Handoff branding -->
  <text x="16" y="30" font-family="Arial, sans-serif" font-size="6" font-weight="bold" fill="white" text-anchor="middle">H</text>
</svg>